<mxfile host="65bd71144e">
    <diagram id="jjF6-8D5hDRVsdyMYq7r" name="Page-1">
        <mxGraphModel dx="1572" dy="1562" grid="1" gridSize="10" guides="1" tooltips="1" connect="1" arrows="1" fold="1" page="1" pageScale="1" pageWidth="850" pageHeight="1100" math="0" shadow="0">
            <root>
                <mxCell id="0"/>
                <mxCell id="1" parent="0"/>
                <mxCell id="20" value="" style="group" parent="1" vertex="1" connectable="0">
                    <mxGeometry x="1190" y="-1080" width="190" height="447.5" as="geometry"/>
                </mxCell>
                <mxCell id="10" value="" style="whiteSpace=wrap;html=1;hachureGap=4;fontFamily=Architects Daughter;fontSource=https%3A%2F%2Ffonts.googleapis.com%2Fcss%3Ffamily%3DArchitects%2BDaughter;fontSize=20;rotation=90;container=0;" parent="20" vertex="1">
                    <mxGeometry x="-123.75" y="143.58" width="447.5" height="160.34" as="geometry"/>
                </mxCell>
                <mxCell id="11" value="&lt;b&gt;SCOOTER&lt;/b&gt;" style="text;strokeColor=none;align=center;fillColor=none;html=1;verticalAlign=middle;whiteSpace=wrap;rounded=0;sketch=1;hachureGap=4;jiggle=2;curveFitting=1;fontFamily=Architects Daughter;fontSource=https%3A%2F%2Ffonts.googleapis.com%2Fcss%3Ffamily%3DArchitects%2BDaughter;fontSize=20;container=0;" parent="20" vertex="1">
                    <mxGeometry x="70" y="25.42862068965519" width="60" height="31.03448275862069" as="geometry"/>
                </mxCell>
                <mxCell id="12" value="&lt;ul&gt;&lt;li&gt;station&lt;/li&gt;&lt;li&gt;user&lt;/li&gt;&lt;li&gt;serial&lt;/li&gt;&lt;li&gt;nextSerial&lt;/li&gt;&lt;li&gt;charge&lt;/li&gt;&lt;li&gt;isBroken&lt;/li&gt;&lt;/ul&gt;" style="text;strokeColor=none;align=left;fillColor=none;html=1;verticalAlign=middle;whiteSpace=wrap;rounded=0;sketch=1;hachureGap=4;jiggle=2;curveFitting=1;fontFamily=Architects Daughter;fontSource=https%3A%2F%2Ffonts.googleapis.com%2Fcss%3Ffamily%3DArchitects%2BDaughter;fontSize=20;container=0;" parent="20" vertex="1">
                    <mxGeometry x="10" y="118.53206896551727" width="180" height="36.20689655172414" as="geometry"/>
                </mxCell>
                <mxCell id="18" value="" style="shape=link;html=1;sketch=1;hachureGap=4;jiggle=2;curveFitting=1;fontFamily=Architects Daughter;fontSource=https%3A%2F%2Ffonts.googleapis.com%2Fcss%3Ffamily%3DArchitects%2BDaughter;fontSize=16;" parent="20" edge="1">
                    <mxGeometry width="100" relative="1" as="geometry">
                        <mxPoint x="50" y="257.67" as="sourcePoint"/>
                        <mxPoint x="150" y="257.67" as="targetPoint"/>
                    </mxGeometry>
                </mxCell>
                <mxCell id="19" value="&lt;ul&gt;&lt;li&gt;rent()&lt;/li&gt;&lt;li&gt;dock(station)&lt;/li&gt;&lt;li&gt;recharge()&lt;/li&gt;&lt;li&gt;requestRepair()&lt;/li&gt;&lt;/ul&gt;" style="text;strokeColor=none;align=left;fillColor=none;html=1;verticalAlign=middle;whiteSpace=wrap;rounded=0;sketch=1;hachureGap=4;jiggle=2;curveFitting=1;fontFamily=Architects Daughter;fontSource=https%3A%2F%2Ffonts.googleapis.com%2Fcss%3Ffamily%3DArchitects%2BDaughter;fontSize=20;container=0;" parent="20" vertex="1">
                    <mxGeometry y="347.67206896551727" width="180" height="36.20689655172414" as="geometry"/>
                </mxCell>
                <mxCell id="23" value="" style="group" parent="1" vertex="1" connectable="0">
                    <mxGeometry x="-590" y="-1070.0049999999999" width="190" height="345" as="geometry"/>
                </mxCell>
                <mxCell id="6" value="" style="whiteSpace=wrap;html=1;hachureGap=4;fontFamily=Architects Daughter;fontSource=https%3A%2F%2Ffonts.googleapis.com%2Fcss%3Ffamily%3DArchitects%2BDaughter;fontSize=20;rotation=90;container=0;" parent="23" vertex="1">
                    <mxGeometry x="-67.71" y="87.545" width="345" height="169.91" as="geometry"/>
                </mxCell>
                <mxCell id="4" value="&lt;b&gt;USER&lt;/b&gt;" style="text;strokeColor=none;align=center;fillColor=none;html=1;verticalAlign=middle;whiteSpace=wrap;rounded=0;sketch=1;hachureGap=4;jiggle=2;curveFitting=1;fontFamily=Architects Daughter;fontSource=https%3A%2F%2Ffonts.googleapis.com%2Fcss%3Ffamily%3DArchitects%2BDaughter;fontSize=20;container=0;" parent="23" vertex="1">
                    <mxGeometry x="70" y="10.51362068965517" width="60" height="31.03448275862069" as="geometry"/>
                </mxCell>
                <mxCell id="5" value="&lt;ul&gt;&lt;li&gt;username&lt;/li&gt;&lt;li&gt;password&lt;/li&gt;&lt;li&gt;age&lt;/li&gt;&lt;li&gt;loggedIn&lt;/li&gt;&lt;/ul&gt;" style="text;strokeColor=none;align=left;fillColor=none;html=1;verticalAlign=middle;whiteSpace=wrap;rounded=0;sketch=1;hachureGap=4;jiggle=2;curveFitting=1;fontFamily=Architects Daughter;fontSource=https%3A%2F%2Ffonts.googleapis.com%2Fcss%3Ffamily%3DArchitects%2BDaughter;fontSize=20;container=0;" parent="23" vertex="1">
                    <mxGeometry x="10" y="103.61706896551725" width="180" height="36.20689655172414" as="geometry"/>
                </mxCell>
                <mxCell id="21" value="" style="shape=link;html=1;sketch=1;hachureGap=4;jiggle=2;curveFitting=1;fontFamily=Architects Daughter;fontSource=https%3A%2F%2Ffonts.googleapis.com%2Fcss%3Ffamily%3DArchitects%2BDaughter;fontSize=16;" parent="23" edge="1">
                    <mxGeometry width="100" relative="1" as="geometry">
                        <mxPoint x="50" y="208.355" as="sourcePoint"/>
                        <mxPoint x="150" y="208.355" as="targetPoint"/>
                    </mxGeometry>
                </mxCell>
                <mxCell id="22" value="&lt;ul&gt;&lt;li&gt;login(password)&lt;/li&gt;&lt;li&gt;&lt;span style=&quot;background-color: initial;&quot;&gt;logout()&lt;/span&gt;&lt;br&gt;&lt;/li&gt;&lt;/ul&gt;" style="text;strokeColor=none;align=left;fillColor=none;html=1;verticalAlign=middle;whiteSpace=wrap;rounded=0;sketch=1;hachureGap=4;jiggle=2;curveFitting=1;fontFamily=Architects Daughter;fontSource=https%3A%2F%2Ffonts.googleapis.com%2Fcss%3Ffamily%3DArchitects%2BDaughter;fontSize=20;container=0;" parent="23" vertex="1">
                    <mxGeometry y="252.66706896551727" width="180" height="36.20689655172414" as="geometry"/>
                </mxCell>
                <mxCell id="28" value="" style="group" parent="1" vertex="1" connectable="0">
                    <mxGeometry x="160" y="-1049.995" width="558.7750000000001" height="405.7000000000001" as="geometry"/>
                </mxCell>
                <mxCell id="14" value="" style="whiteSpace=wrap;html=1;hachureGap=4;fontFamily=Architects Daughter;fontSource=https%3A%2F%2Ffonts.googleapis.com%2Fcss%3Ffamily%3DArchitects%2BDaughter;fontSize=20;rotation=90;container=0;" parent="28" vertex="1">
                    <mxGeometry x="81.45000000000005" y="-71.62500000000009" width="405.7" height="548.95" as="geometry"/>
                </mxCell>
                <mxCell id="27" value="" style="edgeStyle=none;sketch=1;hachureGap=4;jiggle=2;curveFitting=1;html=1;fontFamily=Architects Daughter;fontSource=https%3A%2F%2Ffonts.googleapis.com%2Fcss%3Ffamily%3DArchitects%2BDaughter;fontSize=16;" parent="28" source="15" target="14" edge="1">
                    <mxGeometry relative="1" as="geometry"/>
                </mxCell>
                <mxCell id="15" value="&lt;b&gt;SCOOTER APP&lt;/b&gt;" style="text;strokeColor=none;align=center;fillColor=none;html=1;verticalAlign=middle;whiteSpace=wrap;rounded=0;sketch=1;hachureGap=4;jiggle=2;curveFitting=1;fontFamily=Architects Daughter;fontSource=https%3A%2F%2Ffonts.googleapis.com%2Fcss%3Ffamily%3DArchitects%2BDaughter;fontSize=20;container=0;" parent="28" vertex="1">
                    <mxGeometry x="60" y="12.773620689655093" width="60" height="31.03448275862069" as="geometry"/>
                </mxCell>
                <mxCell id="16" value="&lt;ul&gt;&lt;li&gt;registerUser (username,password, age)&lt;/li&gt;&lt;li&gt;loginUSer(username, password)&lt;/li&gt;&lt;li&gt;logoutUser(username)&lt;/li&gt;&lt;li&gt;createScooter(station)&lt;/li&gt;&lt;li&gt;dockScooter(scooter,station)&lt;/li&gt;&lt;li&gt;rentScooter(scooter, user)&lt;/li&gt;&lt;li&gt;print()&lt;/li&gt;&lt;/ul&gt;" style="text;strokeColor=none;align=left;fillColor=none;html=1;verticalAlign=middle;whiteSpace=wrap;rounded=0;sketch=1;hachureGap=4;jiggle=2;curveFitting=1;fontFamily=Architects Daughter;fontSource=https%3A%2F%2Ffonts.googleapis.com%2Fcss%3Ffamily%3DArchitects%2BDaughter;fontSize=20;container=0;" parent="28" vertex="1">
                    <mxGeometry y="232.77499999999992" width="485" height="36.21" as="geometry"/>
                </mxCell>
                <mxCell id="25" value="" style="shape=link;html=1;sketch=1;hachureGap=4;jiggle=2;curveFitting=1;fontFamily=Architects Daughter;fontSource=https%3A%2F%2Ffonts.googleapis.com%2Fcss%3Ffamily%3DArchitects%2BDaughter;fontSize=16;" parent="28" edge="1">
                    <mxGeometry width="100" relative="1" as="geometry">
                        <mxPoint x="40" y="132.77499999999992" as="sourcePoint"/>
                        <mxPoint x="140" y="132.77499999999992" as="targetPoint"/>
                    </mxGeometry>
                </mxCell>
                <mxCell id="26" value="&lt;ul&gt;&lt;li&gt;station&lt;/li&gt;&lt;li&gt;registered Users&lt;/li&gt;&lt;/ul&gt;" style="text;strokeColor=none;align=left;fillColor=none;html=1;verticalAlign=middle;whiteSpace=wrap;rounded=0;sketch=1;hachureGap=4;jiggle=2;curveFitting=1;fontFamily=Architects Daughter;fontSource=https%3A%2F%2Ffonts.googleapis.com%2Fcss%3Ffamily%3DArchitects%2BDaughter;fontSize=20;container=0;" parent="28" vertex="1">
                    <mxGeometry x="10" y="74.84499999999991" width="305" height="36.21" as="geometry"/>
                </mxCell>
                <mxCell id="47" value="" style="group" vertex="1" connectable="0" parent="1">
                    <mxGeometry x="-650" y="-600" width="1260" height="120" as="geometry"/>
                </mxCell>
                <mxCell id="32" value="" style="rounded=0;whiteSpace=wrap;html=1;hachureGap=4;strokeColor=#f40606;strokeWidth=5;fontFamily=Architects Daughter;fontSource=https%3A%2F%2Ffonts.googleapis.com%2Fcss%3Ffamily%3DArchitects%2BDaughter;fontSize=20;" parent="47" vertex="1">
                    <mxGeometry width="1260" height="120" as="geometry"/>
                </mxCell>
                <mxCell id="40" value="Scooter App Registers a new user" style="text;strokeColor=none;align=center;fillColor=none;html=1;verticalAlign=middle;whiteSpace=wrap;rounded=0;sketch=0;hachureGap=4;jiggle=2;curveFitting=1;strokeWidth=5;fontFamily=Architects Daughter;fontSource=https%3A%2F%2Ffonts.googleapis.com%2Fcss%3Ffamily%3DArchitects%2BDaughter;fontSize=20;" parent="47" vertex="1">
                    <mxGeometry x="470" y="10" width="420" height="30" as="geometry"/>
                </mxCell>
                <mxCell id="46" value="The User class returns a new User object" style="text;strokeColor=none;align=center;fillColor=none;html=1;verticalAlign=middle;whiteSpace=wrap;rounded=0;sketch=0;hachureGap=4;jiggle=2;curveFitting=1;strokeWidth=5;fontFamily=Architects Daughter;fontSource=https%3A%2F%2Ffonts.googleapis.com%2Fcss%3Ffamily%3DArchitects%2BDaughter;fontSize=20;" parent="47" vertex="1">
                    <mxGeometry x="480" y="70" width="440" height="30" as="geometry"/>
                </mxCell>
                <mxCell id="48" value="" style="group" vertex="1" connectable="0" parent="1">
                    <mxGeometry x="-650" y="-450" width="1260" height="120" as="geometry"/>
                </mxCell>
                <mxCell id="49" value="" style="rounded=0;whiteSpace=wrap;html=1;hachureGap=4;strokeColor=#f40606;strokeWidth=5;fontFamily=Architects Daughter;fontSource=https%3A%2F%2Ffonts.googleapis.com%2Fcss%3Ffamily%3DArchitects%2BDaughter;fontSize=20;" vertex="1" parent="48">
                    <mxGeometry width="1260" height="120" as="geometry"/>
                </mxCell>
                <mxCell id="50" value="loginUser(username, password) called and calls login(password) from User class" style="text;strokeColor=none;align=center;fillColor=none;html=1;verticalAlign=middle;whiteSpace=wrap;rounded=0;sketch=0;hachureGap=4;jiggle=2;curveFitting=1;strokeWidth=5;fontFamily=Architects Daughter;fontSource=https%3A%2F%2Ffonts.googleapis.com%2Fcss%3Ffamily%3DArchitects%2BDaughter;fontSize=20;" vertex="1" parent="48">
                    <mxGeometry x="470" y="10" width="420" height="30" as="geometry"/>
                </mxCell>
                <mxCell id="51" value="The User class returns a new User object" style="text;strokeColor=none;align=center;fillColor=none;html=1;verticalAlign=middle;whiteSpace=wrap;rounded=0;sketch=0;hachureGap=4;jiggle=2;curveFitting=1;strokeWidth=5;fontFamily=Architects Daughter;fontSource=https%3A%2F%2Ffonts.googleapis.com%2Fcss%3Ffamily%3DArchitects%2BDaughter;fontSize=20;" vertex="1" parent="48">
                    <mxGeometry x="480" y="70" width="440" height="30" as="geometry"/>
                </mxCell>
            </root>
        </mxGraphModel>
    </diagram>
</mxfile>